<?xml version="1.0" encoding="UTF-8"?>
<svg xmlns="http://www.w3.org/2000/svg" style="display: none;">

  <symbol id="icon--header" viewBox="0 0 100 100">
    <path d="M95 0H5C3.7 0 2.4.5 1.5 1.5.5 2.4 0 3.7 0 5v90c0 1.3.5 2.6 1.5 3.5.9 1 2.2 1.5 3.5 1.5h90c1.3 0 2.6-.5 3.5-1.5.9-.9 1.5-2.2 1.5-3.5V5c0-1.3-.5-2.6-1.5-3.5C97.6.5 96.3 0 95 0zm-5 90H10V40h80v50zm0-60H10V10h80v20z" />
  </symbol>

  <symbol id="icon--footer" viewBox="0 0 100 100">
    <path d="M5 100h90c1.3 0 2.6-.5 3.5-1.5.9-.9 1.5-2.2 1.5-3.5V5c0-1.3-.5-2.6-1.5-3.5C97.6.5 96.3 0 95 0H5C3.7 0 2.4.5 1.5 1.5.5 2.4 0 3.7 0 5v90c0 1.3.5 2.6 1.5 3.5.9 1 2.2 1.5 3.5 1.5zm5-90h80v50H10V10zm0 60h80v20H10V70z"  />
  </symbol>

  <symbol id="icon--map" viewBox="0 0 111 100">
    <path d="M107.3 11.4L74 .3h-3.6L38.9 11.1 7.3.3C6.5 0 5.6-.1 4.7.1c-.8.1-1.7.4-2.4 1C1.6 1.6 1 2.2.6 3 .2 3.8 0 4.7 0 5.6v77.7c0 1.2.4 2.3 1 3.2.7.9 1.6 1.7 2.7 2L37 99.6c1.1.4 2.3.4 3.4 0L72 89.1l31.5 10.8c.6.1 1.2.1 1.8 0 1.2 0 2.3-.4 3.2-1.1.7-.5 1.3-1.2 1.7-2 .4-.8.6-1.6.6-2.5V16.7c0-1.2-.4-2.3-1-3.2-.5-1-1.4-1.7-2.5-2.1zm-74 75.3l-22.2-7.4v-66l22.2 7.4v66zm33.3-7.4l-22.2 7.4v-66l22.2-7.4v66zm33.3 7.4l-22.2-7.4v-66l22.2 7.4v66z" />
  </symbol>

  <symbol id="icon--image" viewBox="0 0 100 100">
    <path d="M85 0H15C11 0 7.2 1.6 4.4 4.4 1.6 7.2 0 11 0 15v70c0 4 1.6 7.8 4.4 10.6C7.2 98.4 11 100 15 100h70c.8 0 1.6-.1 2.5-.3l1.5-.3h.6l1.8-.7.6-.3 1.5-.9c.7-.5 1.3-1 1.9-1.6l.4-.5c.5-.5.9-1 1.3-1.6l.5-.6c.3-.6.6-1.1.9-1.8.1-.2.3-.5.3-.8.3-.6.4-1.2.6-1.9V88c.3-1 .5-2 .5-3V15c0-4-1.6-7.8-4.4-10.6C92.8 1.6 89 0 85 0zM15 90c-1.3 0-2.6-.5-3.5-1.5-1-.9-1.5-2.2-1.5-3.5V63.4l16.4-16.5c.5-.5 1-.8 1.6-1.1.6-.3 1.3-.4 1.9-.4.7 0 1.3.1 1.9.4.6.3 1.2.6 1.6 1.1l43 43H15zm75-5c0 .6-.1 1.2-.3 1.8-.1.2-.2.5-.4.7-.1.2-.3.4-.5.6L62 61.3l4.4-4.4c.5-.5 1-.8 1.6-1.1.6-.3 1.3-.4 1.9-.4.7 0 1.3.1 1.9.4.6.3 1.2.6 1.6 1.1L90 73.4V85zm0-25.7L80.6 50c-2.9-2.7-6.7-4.2-10.6-4.2-3.9 0-7.7 1.5-10.6 4.2L55 54.4 40.6 40c-2.9-2.7-6.7-4.2-10.6-4.2s-7.7 1.5-10.6 4.2L10 49.3V15c0-1.3.5-2.6 1.5-3.5.9-.9 2.2-1.5 3.5-1.5h70c1.3 0 2.6.5 3.5 1.5.9.9 1.5 2.2 1.5 3.5v44.3z" />
  </symbol>

  <symbol id="icon--edit" viewBox="0 0 90 100">
    <path d="M88.5 73.6L76.4 61.4c-.5-.5-1-.8-1.6-1.1-.6-.3-1.3-.4-1.9-.4-.7 0-1.3.1-1.9.4-.6.3-1.2.6-1.6 1.1L51.5 79.3c-.5.5-.8 1-1.1 1.6s-.4 1.3-.4 2V95c0 1.3.5 2.6 1.5 3.5.9.9 2.2 1.5 3.5 1.5h12.1c.7 0 1.3-.1 1.9-.4.6-.2 1.2-.6 1.6-1.1l17.9-17.9c.5-.5.8-1 1.1-1.6.3-.6.4-1.3.4-1.9 0-.7-.1-1.3-.4-1.9-.2-.6-.6-1.2-1.1-1.6zM65 90h-5v-5l12.9-12.9 5 5L65 90zm-30 0H15c-1.3 0-2.6-.5-3.5-1.5-1-.9-1.5-2.2-1.5-3.5V15c0-1.3.5-2.6 1.5-3.5.9-.9 2.2-1.5 3.5-1.5h25v15c0 4 1.6 7.8 4.4 10.6S51 40 55 40h15v5c0 1.3.5 2.6 1.5 3.5.9.9 2.2 1.5 3.5 1.5s2.6-.5 3.5-1.5c.9-.9 1.5-2.2 1.5-3.5V35v-.3c-.1-.5-.2-.9-.3-1.3v-.5c-.2-.5-.6-1-1-1.4l-30-30c-.4-.4-.9-.7-1.4-.9h-.4L45.3 0H15C11 0 7.2 1.6 4.4 4.4 1.6 7.2 0 11 0 15v70c0 4 1.6 7.8 4.4 10.6C7.2 98.4 11 100 15 100h20c1.3 0 2.6-.5 3.5-1.5.9-.9 1.5-2.2 1.5-3.5s-.5-2.6-1.5-3.5c-.9-1-2.2-1.5-3.5-1.5zm15-73l12.9 13h-8c-1.3 0-2.6-.5-3.5-1.5-.9-.9-1.4-2.2-1.4-3.5v-8zM25 60h30c1.3 0 2.6-.5 3.5-1.5.9-.9 1.5-2.2 1.5-3.5 0-1.3-.5-2.6-1.5-3.5-.9-1-2.2-1.5-3.5-1.5H25c-1.3 0-2.6.5-3.5 1.5S20 53.7 20 55c0 1.3.5 2.6 1.5 3.5.9 1 2.2 1.5 3.5 1.5zm0-20h5c1.3 0 2.6-.5 3.5-1.5.9-.9 1.5-2.2 1.5-3.5s-.5-2.6-1.5-3.5c-.9-1-2.2-1.5-3.5-1.5h-5c-1.3 0-2.6.5-3.5 1.5-1 .9-1.5 2.2-1.5 3.5s.5 2.6 1.5 3.5c.9 1 2.2 1.5 3.5 1.5zm10 30H25c-1.3 0-2.6.5-3.5 1.5-1 .9-1.5 2.2-1.5 3.5 0 1.3.5 2.6 1.5 3.5.9.9 2.2 1.5 3.5 1.5h10c1.3 0 2.6-.5 3.5-1.5.9-.9 1.5-2.2 1.5-3.5 0-1.3-.5-2.6-1.5-3.5-.9-1-2.2-1.5-3.5-1.5z" />
  </symbol>

  <symbol id="icon--angle-right" viewBox="0 0 57.6 100">
    <path d="M55.1 44.5L12.8 2.2c-.7-.7-1.5-1.3-2.4-1.6C9.5.2 8.5 0 7.5 0s-2 .2-2.9.6c-.9.4-1.7.9-2.4 1.6C.8 3.6 0 5.5 0 7.5s.8 3.9 2.2 5.3l37 37.4-37 37C.8 88.6 0 90.5 0 92.5s.8 3.9 2.2 5.3c.7.7 1.5 1.3 2.4 1.7.9.4 1.9.6 2.9.6s2-.2 2.9-.6c.9-.4 1.7-.9 2.4-1.7l42.3-42.3c.8-.7 1.4-1.6 1.8-2.5.4-.9.6-2 .6-3s-.2-2.1-.6-3c-.4-1-1-1.8-1.8-2.5z" />
  </symbol>

  <symbol id="icon--angle-down" viewBox="0 0 168.8 100">
    <path d="M164 4.7c-3-3-7.1-4.7-11.3-4.7-4.2 0-8.3 1.7-11.3 4.7L84 61.3 27.3 4.7c-3-3-7-4.7-11.3-4.7-4.2 0-8.3 1.7-11.3 4.7C3.2 6.1 2 7.9 1.2 9.9c-.8 2-1.2 4-1.2 6.2s.4 4.2 1.2 6.2c.8 2 2 3.7 3.5 5.2l67.9 67.9c1.5 1.5 3.3 2.7 5.2 3.5 2 .8 4 1.2 6.2 1.2 2.1 0 4.2-.4 6.2-1.2 2-.8 3.7-2 5.2-3.5l68.6-68c1.5-1.5 2.7-3.3 3.5-5.2.8-2 1.2-4 1.2-6.2s-.4-4.2-1.2-6.2c-.8-1.9-2-3.7-3.5-5.1z" />
  </symbol>

  <symbol id="icon--redo" viewBox="0 0 100 100">
    <path d="M95 45c-1.3 0-2.6.5-3.5 1.5-1 .9-1.5 2.2-1.5 3.5.1 9.4-3.1 18.5-9.1 25.7C75 83 66.7 87.9 57.5 89.8c-9.2 1.8-18.7.4-27-4.1-8.1-4.5-14.6-11.7-18.1-20.4-3.5-8.7-3.9-18.3-1-27.2 2.8-8.9 8.7-16.6 16.6-21.7s17.3-7.2 26.6-6.1c9.3 1.1 17.9 5.4 24.4 12.2H67c-1.3 0-2.6.5-3.5 1.5-.9.9-1.5 2.2-1.5 3.5 0 1.3.5 2.6 1.5 3.5.9.9 2.2 1.5 3.5 1.5h22.7c1.3 0 2.6-.5 3.5-1.5.9-.9 1.5-2.2 1.5-3.5V5c0-1.3-.5-2.6-1.5-3.5C92.1.5 90.9 0 89.5 0 88.2 0 87 .5 86 1.5c-.9.9-1.5 2.2-1.5 3.5v8.8C76.2 5.8 65.4 1 53.9.1 42.4-.7 31 2.3 21.5 8.9 12.1 15.5 5.1 25.1 2 36.2c-3.2 11-2.5 22.9 2 33.4 4.5 10.6 12.6 19.3 22.8 24.6 10.2 5.3 21.9 7 33.2 4.7 11.3-2.3 21.4-8.4 28.7-17.4C96 72.7 100 61.5 100 50c0-1.3-.5-2.6-1.5-3.5-.9-1-2.2-1.5-3.5-1.5z" />
  </symbol>

  <symbol id="icon--undo" viewBox="0 0 100 100">
    <path d="M5 45c1.3 0 2.6.5 3.5 1.5S10 48.7 10 50c-.1 9.4 3.1 18.5 9.1 25.7 5.9 7.3 14.2 12.2 23.4 14 9.2 1.8 18.7.4 27-4.1S84.1 74 87.6 65.3c3.5-8.7 3.9-18.3 1-27.2-2.8-8.9-8.7-16.6-16.6-21.7-7.9-5.1-17.3-7.2-26.6-6.1-9.3 1.1-17.9 5.4-24.4 12.2h12c1.3 0 2.6.5 3.5 1.5.9.9 1.5 2.2 1.5 3.5 0 1.3-.5 2.6-1.5 3.5-.9.9-2.2 1.5-3.5 1.5H10.5C9.2 32.5 7.9 32 7 31c-.9-.9-1.5-2.2-1.5-3.5V5c0-1.3.5-2.6 1.5-3.5C7.9.5 9.1 0 10.5 0c1.3 0 2.5.5 3.5 1.5.9.9 1.5 2.2 1.5 3.5v8.8C23.8 5.8 34.6 1 46.1.1 57.6-.7 69 2.3 78.5 8.9c9.5 6.6 16.4 16.2 19.6 27.3 3.2 11.1 2.5 22.9-2.1 33.5C91.5 80.3 83.4 89 73.2 94.3 63 99.6 51.3 101.3 40 99c-11.3-2.3-21.4-8.4-28.7-17.4C4 72.7 0 61.5 0 50c0-1.3.5-2.6 1.5-3.5.9-1 2.2-1.5 3.5-1.5z" />
  </symbol>

  <symbol id="icon--plus" viewBox="0 0 100 100">
    <path d="M93.8 43.8H56.3V6.2c0-1.7-.7-3.2-1.8-4.4C53.2.7 51.7 0 50 0c-1.7 0-3.2.7-4.4 1.8-1.2 1.2-1.8 2.8-1.8 4.4v37.5H6.2c-1.7 0-3.2.7-4.4 1.8C.7 46.8 0 48.3 0 50c0 1.7.7 3.2 1.8 4.4 1.2 1.2 2.8 1.8 4.4 1.8h37.5v37.5c0 1.7.7 3.2 1.8 4.4 1.2 1.2 2.8 1.8 4.4 1.8 1.7 0 3.2-.7 4.4-1.8 1.2-1.2 1.8-2.8 1.8-4.4V56.3h37.5c1.7 0 3.2-.7 4.4-1.8 1.2-1.2 1.8-2.8 1.8-4.4 0-1.7-.7-3.2-1.8-4.4-1-1.3-2.6-1.9-4.2-1.9z" />
  </symbol>

  <symbol id="icon--back" viewBox="0 0 100 100">
    <path d="M92.5 65.5c-1.2-.6-2.6-.7-3.8-.3-1.3.4-2.3 1.3-2.9 2.5-3.2 6.4-8 11.8-13.9 15.7-6 3.9-12.9 6.1-20 6.5-7.1.3-14.2-1.2-20.5-4.6C25.1 82 19.8 77 16 71c-3.8-6.1-5.8-13-6-20.1-.2-7.1 1.6-14.2 5.1-20.4 3.5-6.2 8.5-11.4 14.7-15 6-3.6 13-5.5 20.2-5.5 7.5 0 14.8 2 21.1 6 6.3 3.9 11.4 9.6 14.7 16.3.6 1.2 1.6 2.1 2.9 2.5 1.3.4 2.6.3 3.8-.3 1.2-.6 2.1-1.6 2.5-2.9.4-1.3.3-2.6-.3-3.8-5-10.1-13.3-18.2-23.5-23C61.1 0 49.5-1.3 38.6 1.3c-11 2.6-20.8 8.8-27.8 17.6C3.8 27.8 0 38.7 0 50s3.8 22.2 10.8 31.1c7 8.8 16.8 15 27.8 17.6 11 2.6 22.5 1.4 32.7-3.4 10.2-4.8 18.5-12.9 23.5-23 .3-.6.5-1.2.5-1.9s0-1.3-.3-2c-.2-.6-.6-1.2-1-1.7s-.9-.9-1.5-1.2zM95 45H47l11.5-11.4c.5-.5.8-1 1.1-1.6.3-.6.4-1.3.4-1.9 0-.7-.1-1.3-.4-1.9-.3-.6-.6-1.2-1.1-1.6-.5-.5-1-.8-1.6-1.1-.6-.4-1.3-.5-1.9-.5-.7 0-1.3.1-1.9.4-.6.3-1.2.6-1.6 1.1l-20 20c-.5.5-.8 1-1 1.7a5 5 0 000 3.8c.2.6.6 1.2 1 1.7l20 20c.5.5 1 .8 1.6 1.1.6.3 1.3.4 1.9.4.7 0 1.3-.1 1.9-.4.6-.3 1.2-.6 1.6-1.1.5-.5.8-1 1.1-1.6.3-.6.4-1.3.4-1.9 0-.7-.1-1.3-.4-1.9-.3-.6-.6-1.2-1.1-1.6L47 55h48c1.3 0 2.6-.5 3.5-1.5.9-.9 1.5-2.2 1.5-3.5 0-1.3-.5-2.6-1.5-3.5-.9-1-2.2-1.5-3.5-1.5z" />
  </symbol>

  <symbol id="icon--network" viewBox="0 0 100 100">
    <path d="M95.5 63.6h-9.1V50c0-1.2-.5-2.4-1.3-3.2-.9-.9-2-1.3-3.2-1.3H54.5v-9.1h9.1c1.2 0 2.4-.5 3.2-1.3.9-.9 1.3-2 1.3-3.2V4.5c0-1.2-.5-2.4-1.3-3.2-.8-.8-2-1.3-3.2-1.3H36.4c-1.2 0-2.4.5-3.2 1.3-.9.9-1.3 2-1.3 3.2v27.3c0 1.2.5 2.4 1.3 3.2.9.9 2 1.3 3.2 1.3h9.1v9.1H18.2c-1.2 0-2.4.5-3.2 1.3-.9.9-1.3 2-1.3 3.2v13.6H4.5c-1.2 0-2.4.5-3.2 1.3C.5 65.8 0 67 0 68.2v27.3c0 1.2.5 2.4 1.3 3.2.9.9 2 1.3 3.2 1.3h27.3c1.2 0 2.4-.5 3.2-1.3.9-.9 1.3-2 1.3-3.2V68.2c0-1.2-.5-2.4-1.3-3.2-.9-.9-2-1.3-3.2-1.3h-9.1v-9.1h54.5v9.1h-9.1c-1.2 0-2.4.5-3.2 1.3-.9.9-1.3 2-1.3 3.2v27.3c0 1.2.5 2.4 1.3 3.2.9.9 2 1.3 3.2 1.3h27.3c1.2 0 2.4-.5 3.2-1.3.9-.9 1.3-2 1.3-3.2V68.2c0-1.2-.5-2.4-1.3-3.2a4.1 4.1 0 00-3.1-1.4zm-68.2 9.1v18.2H9.1V72.7h18.2zm13.6-45.4V9.1h18.2v18.2H40.9zm50 63.6H72.7V72.7h18.2v18.2z" />
  </symbol>

  <symbol id="icon--desktop" viewBox="0 0 111.1 100">
    <path d="M94.4 0H16.7C12.2 0 8 1.8 4.9 4.9 1.8 8 0 12.2 0 16.7v44.4c0 4.4 1.8 8.7 4.9 11.8 3.1 3.1 7.4 4.9 11.8 4.9H50v11.1H27.8c-1.5 0-2.9.6-3.9 1.6s-1.6 2.5-1.6 3.9c0 1.5.6 2.9 1.6 3.9s2.5 1.6 3.9 1.6h55.6c1.5 0 2.9-.6 3.9-1.6s1.6-2.5 1.6-3.9c0-1.5-.6-2.9-1.6-3.9s-2.5-1.6-3.9-1.6H61.1V77.8h33.3c4.4 0 8.7-1.8 11.8-4.9 3.1-3.1 4.9-7.4 4.9-11.8V16.7c0-4.4-1.8-8.7-4.9-11.8C103.1 1.8 98.9 0 94.4 0zm5.6 61.1c0 1.5-.6 2.9-1.6 3.9s-2.5 1.6-3.9 1.6H16.7c-1.5 0-2.9-.6-3.9-1.6s-1.6-2.5-1.6-3.9V16.7c0-1.5.6-2.9 1.6-3.9s2.5-1.6 3.9-1.6h77.8c1.5 0 2.9.6 3.9 1.6s1.6 2.5 1.6 3.9v44.4z" />
  </symbol>

  <symbol id="icon--ellipsis-h" viewBox="0 0 450 100">
    <path d="M225 0c-9.9 0-19.6 2.9-27.8 8.4s-14.6 13.3-18.4 22.4c-3.8 9.2-4.8 19.3-2.8 29 1.9 9.7 6.7 18.6 13.7 25.6 7 7 15.9 11.8 25.6 13.7 9.7 1.9 19.8.9 28.9-2.8 9.1-3.8 16.9-10.2 22.4-18.4S275 60 275 50.1c0-13.3-5.3-26-14.6-35.4C251 5.3 238.3 0 225 0zM50 0c-9.9 0-19.6 2.9-27.8 8.4S7.6 21.7 3.8 30.9C0 40-1 50.1 1 59.8c1.9 9.7 6.7 18.6 13.7 25.6 7 7 15.9 11.8 25.6 13.7 9.7 1.9 19.8.9 28.9-2.8 9.1-3.8 16.9-10.2 22.4-18.4S100 60 100 50.1c0-13.3-5.3-26-14.6-35.4S63.3 0 50 0zm350 0c-9.9 0-19.6 2.9-27.8 8.4s-14.6 13.3-18.4 22.4c-3.8 9.2-4.8 19.3-2.8 29 1.9 9.7 6.7 18.6 13.7 25.6 7 7 15.9 11.8 25.6 13.7 9.7 1.9 19.8.9 28.9-2.8 9.1-3.8 16.9-10.2 22.4-18.4S450 60 450 50.1c0-13.3-5.3-26-14.6-35.4C426 5.3 413.3 0 400 0z" />
  </symbol>

  <symbol id="icon--ellipsis-v-double" viewBox="0 0 59.5 100">
    <path d="M11.1 22.2c2.2 0 4.3-.7 6.2-1.9 1.8-1.2 3.3-3 4.1-5 .8-2 1.1-4.3.6-6.4-.4-2.2-1.5-4.1-3-5.7-1.6-1.6-3.5-2.6-5.7-3-2.2-.4-4.4-.2-6.4.6s-3.8 2.3-5 4.1C.7 6.8 0 8.9 0 11.1 0 14 1.2 16.9 3.3 19c2 2.1 4.9 3.2 7.8 3.2zm0 55.6c-2.2 0-4.3.7-6.2 1.9-1.8 1.2-3.3 3-4.1 5-.8 2-1.1 4.3-.6 6.4.4 2.2 1.5 4.1 3 5.7 1.6 1.6 3.5 2.6 5.7 3 2.2.4 4.4.2 6.4-.6s3.8-2.3 5-4.1c1.2-1.8 1.9-4 1.9-6.2 0-2.9-1.2-5.8-3.3-7.9-2-2.1-4.8-3.2-7.8-3.2zm0-38.9c-2.2 0-4.3.7-6.2 1.9-1.8 1.2-3.3 3-4.1 5-.8 2-1.1 4.3-.6 6.4.4 2.2 1.5 4.1 3 5.7 1.6 1.6 3.5 2.6 5.7 3 2.2.4 4.4.2 6.4-.6s3.8-2.3 5-4.1 1.9-4 1.9-6.2c0-2.9-1.2-5.8-3.3-7.9-2-2-4.8-3.2-7.8-3.2zM48.4 22.2c2.2 0 4.3-.7 6.2-1.9 1.8-1.2 3.3-3 4.1-5s1.1-4.3.6-6.4c-.4-2.2-1.5-4.1-3-5.7-1.6-1.6-3.5-2.6-5.7-3-2.2-.4-4.4-.2-6.4.6s-3.8 2.3-5 4.1c-1.2 1.8-1.9 4-1.9 6.2 0 2.9 1.2 5.8 3.3 7.9 2 2.1 4.9 3.2 7.8 3.2zm0 55.6c-2.2 0-4.3.7-6.2 1.9-1.8 1.2-3.3 3-4.1 5-.8 2-1.1 4.3-.6 6.4.4 2.2 1.5 4.1 3 5.7 1.6 1.6 3.5 2.6 5.7 3s4.4.2 6.4-.6 3.8-2.3 5-4.1c1.2-1.8 1.9-4 1.9-6.2 0-2.9-1.2-5.8-3.3-7.9-2-2.1-4.8-3.2-7.8-3.2zm0-38.9c-2.2 0-4.3.7-6.2 1.9-1.8 1.2-3.3 3-4.1 5-.8 2-1.1 4.3-.6 6.4.4 2.2 1.5 4.1 3 5.7 1.6 1.6 3.5 2.6 5.7 3 2.2.4 4.4.2 6.4-.6s3.8-2.3 5-4.1c1.2-1.8 1.9-4 1.9-6.2 0-2.9-1.2-5.8-3.3-7.9-2-2-4.8-3.2-7.8-3.2z" />
  </symbol>

</svg>